<svg width="122" height="29" viewBox="0 0 122 29" fill="none" xmlns="http://www.w3.org/2000/svg">
<path d="M49.652 18.676C49.652 25.876 53.324 28.36 57.356 28.36C59.444 28.36 61.568 27.748 63.62 26.524C63.764 26.776 63.908 27.748 64.052 28H67.652V0.532007H63.26V8.27201C62.072 8.05601 60.704 7.91201 59.588 7.91201C54.044 7.91201 49.652 10.468 49.652 18.676ZM54.188 18.46C54.188 13.636 55.988 11.62 60.056 11.62C61.028 11.62 62.072 11.728 63.224 11.944V23.068C61.568 24.004 59.84 24.616 58.4 24.616C55.844 24.616 54.188 22.78 54.188 18.46Z" fill="#23415C"/>
<path d="M84.2606 8.23601C81.1646 8.41601 78.9326 10.288 76.8086 11.656V8.34401H72.6327V28H77.0247V15.256C79.6526 14.104 81.6686 13.204 84.2606 12.808V8.23601Z" fill="#23415C"/>
<path d="M91.756 8.34401H87.328V28H91.756V8.34401ZM91.792 1.28801H87.256V5.68001H91.792V1.28801Z" fill="#23415C"/>
<path d="M108.307 0.460006C107.155 0.244006 105.463 0.100006 103.879 0.100006C99.4507 0.100006 97.6507 1.90001 97.6507 5.89601V8.38001L95.2387 8.77601V12.124H97.6507V28H102.043V12.124H107.515V8.38001H101.899V6.76001C101.899 4.85201 102.403 3.73601 105.139 3.73601C105.859 3.73601 106.975 3.84401 108.307 4.06001V0.460006Z" fill="#23415C"/>
<path d="M115.752 12.124H121.764V8.38001H115.788V4.02401H114.348L108.768 9.38801V12.124H111.324V23.86C111.324 27.604 113.52 28.396 115.968 28.396C117.48 28.396 119.496 28.108 121.008 27.82V24.04C120.144 24.292 119.1 24.508 118.2 24.508C116.94 24.508 115.752 24.004 115.752 22.348V12.124Z" fill="#23415C"/>
<path d="M14.125 28.25C6.33647 28.25 0 21.9135 0 14.125C0 6.33647 6.33647 0 14.125 0C15.9471 0 17.7325 0.3503 19.4303 1.03819C20.1535 1.33199 20.501 2.15548 20.2086 2.87868C19.9148 3.60046 19.0899 3.94794 18.3682 3.65696C17.0093 3.10467 15.5813 2.825 14.125 2.825C7.89446 2.825 2.825 7.89446 2.825 14.125C2.825 20.3555 7.89446 25.425 14.125 25.425C15.5813 25.425 17.0093 25.1453 18.3682 24.593C19.0914 24.3006 19.9148 24.6481 20.2086 25.3713C20.5024 26.0945 20.1535 26.918 19.4303 27.2118C17.7325 27.9011 15.9471 28.25 14.125 28.25ZM25.2498 21.6833C25.0182 21.6833 24.7837 21.6268 24.5676 21.5067C23.8854 21.1282 23.6382 20.2694 24.0153 19.5871C24.9377 17.9204 25.425 16.0319 25.425 14.125C25.425 12.2181 24.9377 10.3296 24.0153 8.66286C23.6368 7.98063 23.8854 7.12041 24.5676 6.74328C25.2484 6.36614 26.1101 6.61332 26.4872 7.29556C27.6398 9.379 28.25 11.7407 28.25 14.125C28.25 16.5093 27.6398 18.8696 26.4872 20.9544C26.2287 21.4191 25.7485 21.6833 25.2498 21.6833Z" fill="#C24D9A"/>
<path d="M31.301 28.25C23.5125 28.25 17.176 21.9135 17.176 14.125C17.176 6.33647 23.5125 0 31.301 0C39.0895 0 45.426 6.33647 45.426 14.125C45.426 21.9135 39.0895 28.25 31.301 28.25ZM31.301 2.825C25.0705 2.825 20.001 7.89446 20.001 14.125C20.001 20.3555 25.0705 25.425 31.301 25.425C37.5315 25.425 42.601 20.3555 42.601 14.125C42.601 7.89446 37.5315 2.825 31.301 2.825Z" fill="#4DD5D2"/>
</svg>
