<svg width="460" height="104" viewBox="0 0 460 104" fill="none" xmlns="http://www.w3.org/2000/svg">
<path d="M9.3396 103.579V80.8151C13.9344 81.8838 19.8115 82.7388 24.2994 82.7388C40.4347 82.7388 51.5477 74.2958 51.5477 51.4248C51.5477 30.905 41.9307 22.6758 30.8177 22.6758C23.9789 22.6758 16.7127 25.3476 9.3396 30.5844V23.9582H0.256836V103.579H9.3396ZM42.1444 51.9592C42.1444 66.6009 36.3742 75.0439 23.4446 75.0439C19.3841 75.0439 14.0413 74.0821 9.3396 73.0133V37.9587C16.2852 33.1494 22.8035 30.7982 28.1463 30.7982C36.2673 30.7982 42.1444 36.9969 42.1444 51.9592Z" fill="white"/>
<path d="M74.2463 23.9582H65.1635V81.6701H74.2463V23.9582ZM74.3531 3.43848H64.9498V14.6602H74.3531V3.43848Z" fill="white"/>
<path d="M137.634 71.0896C131.544 73.2271 123.85 74.8302 117.759 74.8302C104.83 74.8302 97.3497 69.3796 97.2429 55.2723H138.917V50.8904C138.917 36.6762 134.749 22.6758 114.447 22.6758C97.136 22.6758 87.8395 33.1494 87.8395 52.7073C87.8395 73.9752 97.5634 82.9526 115.836 82.9526C124.064 82.9526 130.368 81.6701 137.634 79.212V71.0896ZM97.136 48.4323C97.136 37.9587 102.586 30.1569 114.019 30.1569C127.376 30.1569 129.513 40.0962 129.513 48.4323H97.136Z" fill="white"/>
<path d="M184.349 23.5308C174.839 24.3857 168.107 30.0501 161.268 34.325V23.9582H152.506V81.6701H161.589V42.1268C170.137 37.5312 176.121 34.325 184.349 33.0425V23.5308Z" fill="white"/>
<path d="M203.538 23.9582H194.455V81.6701H203.538V23.9582ZM203.645 3.43848H194.241V14.6602H203.645V3.43848Z" fill="white"/>
<path d="M236.579 47.7911C224.184 47.7911 215.956 53.776 215.956 65.3184C215.956 77.0745 224.291 82.2045 233.908 82.2045C240.746 82.2045 247.692 79.1051 254.424 74.4027L255.172 81.6701H262.972V42.1268C262.972 29.1951 255.172 22.6758 242.029 22.6758C236.152 22.6758 227.496 23.6376 220.871 25.1339V33.1494C227.069 31.4394 234.976 30.4775 239.998 30.4775C250.043 30.4775 253.783 34.9663 253.783 41.5924V47.7911H236.579ZM253.783 67.7765C249.295 71.4102 242.349 74.7233 236.579 74.7233C229.847 74.7233 225.252 71.4102 225.252 64.6772C225.252 58.3716 229.206 54.631 237.541 54.631H253.783V67.7765Z" fill="white"/>
<path d="M327.915 81.6701V39.1343C327.915 28.3401 322.145 22.6758 311.352 22.6758C304.086 22.6758 295.965 26.3095 287.737 31.0119V23.9582H279.189V81.6701H288.271V38.2793C295.644 34.1113 303.018 30.905 308.788 30.905C315.84 30.905 318.832 34.6456 318.832 40.7374V81.6701H327.915Z" fill="white"/>
<path d="M343.208 54.0963C343.208 75.6848 353.573 82.8453 365.114 82.8453C371.845 82.8453 378.684 80.601 385.95 76.1123L386.912 81.6697H394.392V0.125H385.309V24.2785C381.035 23.4235 375.585 22.6754 371.525 22.6754C355.817 22.6754 343.208 30.1565 343.208 54.0963ZM352.611 53.6688C352.611 37.7446 358.702 30.584 372.166 30.584C376.333 30.584 380.608 31.1184 385.309 32.0803V68.5242C379.539 72.2648 372.7 74.9367 367.251 74.9367C358.595 74.9367 352.611 69.0586 352.611 53.6688Z" fill="#ED9F50"/>
<path d="M459.299 23.9579H447.865L432.05 45.867C426.815 38.4927 421.472 31.2253 416.236 23.9579H404.802L425.96 52.7069L404.588 81.6697H415.595C420.937 74.1885 426.28 66.6005 431.73 59.1193L448.293 81.6697H459.299C452.139 71.9442 445.087 62.1118 437.928 52.2794L459.299 23.9579Z" fill="#ED9F50"/>
</svg>
